<mxGraphModel dx="0" dy="0" grid="1" gridSize="10" guides="1" tooltips="1" connect="1" arrows="1" fold="1" page="0" pageScale="1" background="none" math="0" shadow="0">
  <root>
    <mxCell id="0" />
    <mxCell id="1" parent="0" />
    <mxCell id="node0" parent="1" vertex="1" value="&lt;p style=&quot;margin:0px;margin-top:4px;text-align:center;&quot;&gt;&lt;b&gt;CalculadoraV1&lt;/b&gt;&lt;/p&gt;&lt;hr size=&quot;1&quot;/&gt;&lt;p style=&quot;margin:0 0 0 4px;line-height:1.6;&quot;&gt;- calculaDivisao(double, double): double&lt;br/&gt;+ main(String[]): void&lt;br/&gt;- calculaSubtracao(double, double): double&lt;br/&gt;- calculaMultiplicacao(double, double): double&lt;br/&gt;- mostraResultado(double, int): void&lt;br/&gt;+ solicitarOperacao(): int&lt;br/&gt;+ solicitarNumero(String): double&lt;br/&gt;- calculaSoma(double, double): double&lt;/p&gt;" style="verticalAlign=top;align=left;overflow=fill;fontSize=14;fontFamily=Helvetica;html=1;rounded=0;shadow=0;comic=0;labelBackgroundColor=none;strokeWidth=1;">
      <mxGeometry x="-425" y="-64" width="561" height="219" as="geometry" />
    </mxCell>
  </root>
</mxGraphModel>